<svg width="165" height="165" viewBox="0 0 165 165" fill="none" xmlns="http://www.w3.org/2000/svg">
<circle cx="82" cy="82" r="63" fill="white"/>
<circle cx="82.5" cy="82.5" r="81.75" stroke="white" stroke-width="1.5"/>
<path d="M102.127 80.4415L69.7454 60.273C69.4728 60.1017 69.1602 60.0077 68.84 60.0004C68.5198 59.9932 68.2035 60.0732 67.9238 60.232C67.644 60.3908 67.4109 60.6227 67.2485 60.9039C67.0861 61.1851 67.0004 61.5053 67 61.8315V102.169C67.0004 102.495 67.0861 102.815 67.2485 103.096C67.4109 103.377 67.644 103.609 67.9238 103.768C68.2035 103.927 68.5198 104.007 68.84 104C69.1602 103.992 69.4728 103.898 69.7454 103.727L102.127 83.5585C102.393 83.3983 102.613 83.1704 102.766 82.8971C102.92 82.6238 103 82.3146 103 82C103 81.6854 102.92 81.3762 102.766 81.1029C102.613 80.8296 102.393 80.6017 102.127 80.4415Z" fill="#171717"/>
</svg>
