<svg width="360" height="228" viewBox="0 0 360 228" fill="none" xmlns="http://www.w3.org/2000/svg">
<path d="M14.135 34.16V50H21.175V34.16L34.705 9.795H27.06L19.195 24.425C18.48 25.745 18.26 26.405 17.765 27.395C17.325 26.405 16.94 25.525 16.335 24.425L8.415 9.795H0.55L14.135 34.16ZM31.411 36.36C31.411 44.83 37.516 50.66 45.931 50.66C54.346 50.66 60.451 44.83 60.451 36.36C60.451 27.89 54.346 22.06 45.931 22.06C37.516 22.06 31.411 27.89 31.411 36.36ZM38.121 36.36C38.121 31.41 41.311 28.055 45.931 28.055C50.551 28.055 53.741 31.41 53.741 36.36C53.741 41.31 50.551 44.665 45.931 44.665C41.311 44.665 38.121 41.31 38.121 36.36ZM83.5502 22.83V37.075C83.5502 42.245 81.5152 44.72 77.2802 44.72C73.5402 44.72 71.5052 42.63 71.5052 37.46V22.83H64.7952V39.825C64.7952 46.48 68.4802 50.715 74.7502 50.715C78.3802 50.715 81.9002 48.955 83.5502 46.37L84.0452 50H90.2602V22.83H83.5502ZM114.241 22.72C113.141 22.445 112.206 22.335 111.271 22.335C107.641 22.335 105.056 24.15 103.901 26.845L103.516 22.885H97.1906V50H103.901V36.8C103.901 31.52 106.926 28.935 111.766 28.935H114.241V22.72ZM11.495 108V92.985H20.13L26.95 108H34.65L27.005 91.5C31.735 89.575 34.265 85.725 34.265 80.335C34.265 72.415 28.93 67.795 19.8 67.795H4.455V108H11.495ZM11.495 74.065H19.8C24.255 74.065 26.895 76.32 26.895 80.335C26.895 84.405 24.255 86.77 19.8 86.77H11.495V74.065ZM50.5321 108.715C57.6271 108.715 62.5771 105.14 63.7321 99.2H57.5171C56.7471 101.785 54.3271 103.215 50.6421 103.215C46.1871 103.215 43.6571 100.795 43.1621 96.01L63.6221 95.955V93.92C63.6221 85.45 58.4521 80.005 50.3121 80.005C42.3371 80.005 36.7821 85.89 36.7821 94.415C36.7821 102.83 42.4471 108.715 50.5321 108.715ZM50.3671 85.505C54.3821 85.505 56.9671 87.98 56.9671 91.72H43.3271C43.9871 87.65 46.4071 85.505 50.3671 85.505ZM76.8088 108.715C81.0438 108.715 84.7288 106.79 85.8838 103.985L86.3788 108H92.2638V91.5C92.2638 83.965 87.7538 80.005 80.4388 80.005C73.0688 80.005 68.2288 83.855 68.2288 89.74H73.9488C73.9488 86.88 76.1488 85.23 80.1088 85.23C83.5188 85.23 85.7188 86.715 85.7188 90.4V91.005L77.5788 91.61C71.1438 92.105 67.5138 95.24 67.5138 100.245C67.5138 105.36 71.0338 108.715 76.8088 108.715ZM79.0088 103.655C75.9838 103.655 74.3338 102.445 74.3338 99.97C74.3338 97.77 75.9288 96.395 80.1088 96.01L85.7738 95.57V97C85.7738 101.18 83.1338 103.655 79.0088 103.655ZM105.621 108V67.08H98.9656V108H105.621ZM153.444 108V101.51H135.514V90.84H151.574V84.625H135.514V74.285H153.444V67.795H128.474V108H153.444ZM157.996 99.75C157.996 105.085 162.286 108.715 169.051 108.715C175.761 108.715 180.436 105.305 180.436 99.805C180.436 95.625 178.126 93.535 173.561 92.49L168.666 91.335C166.356 90.785 165.146 89.795 165.146 88.255C165.146 86.22 166.686 85.01 169.326 85.01C171.911 85.01 173.451 86.495 173.506 88.805H179.886C179.831 83.525 175.706 80.005 169.601 80.005C163.331 80.005 158.821 83.195 158.821 88.53C158.821 92.875 161.186 95.185 166.081 96.285L170.976 97.44C173.396 97.99 174.111 98.98 174.111 100.355C174.111 102.335 172.406 103.6 169.271 103.6C166.191 103.6 164.431 102.115 164.376 99.75H157.996ZM194.785 108V86.44H200.065V80.83H194.785V72.36H188.075V80.83H182.85V86.44H188.075V108H194.785ZM212.16 108.715C216.395 108.715 220.08 106.79 221.235 103.985L221.73 108H227.615V91.5C227.615 83.965 223.105 80.005 215.79 80.005C208.42 80.005 203.58 83.855 203.58 89.74H209.3C209.3 86.88 211.5 85.23 215.46 85.23C218.87 85.23 221.07 86.715 221.07 90.4V91.005L212.93 91.61C206.495 92.105 202.865 95.24 202.865 100.245C202.865 105.36 206.385 108.715 212.16 108.715ZM214.36 103.655C211.335 103.655 209.685 102.445 209.685 99.97C209.685 97.77 211.28 96.395 215.46 96.01L221.125 95.57V97C221.125 101.18 218.485 103.655 214.36 103.655ZM243.071 108V86.44H248.351V80.83H243.071V72.36H236.361V80.83H231.136V86.44H236.361V108H243.071ZM264.409 108.715C271.504 108.715 276.454 105.14 277.609 99.2H271.394C270.624 101.785 268.204 103.215 264.519 103.215C260.064 103.215 257.534 100.795 257.039 96.01L277.499 95.955V93.92C277.499 85.45 272.329 80.005 264.189 80.005C256.214 80.005 250.659 85.89 250.659 94.415C250.659 102.83 256.324 108.715 264.409 108.715ZM264.244 85.505C268.259 85.505 270.844 87.98 270.844 91.72H257.204C257.864 87.65 260.284 85.505 264.244 85.505ZM2.145 137.015C2.145 143.175 5.72 147.08 12.54 148.565L18.92 149.995C22.22 150.71 23.595 152.305 23.595 155C23.595 158.355 20.625 160.39 15.95 160.39C11.44 160.39 8.69 158.355 8.635 154.945H1.595C1.76 162.15 7.37 166.715 15.95 166.715C24.805 166.715 30.635 161.875 30.635 154.395C30.635 148.4 27.28 144.88 20.405 143.395L14.08 142.02C10.725 141.25 9.185 139.655 9.185 136.795C9.185 133.44 11.99 131.35 16.335 131.35C20.295 131.35 22.77 133.385 22.935 136.85H29.975C29.755 129.59 24.585 125.08 16.445 125.08C7.975 125.08 2.145 129.975 2.145 137.015ZM34.4188 152.36C34.4188 160.83 40.5238 166.66 48.9388 166.66C57.3538 166.66 63.4588 160.83 63.4588 152.36C63.4588 143.89 57.3538 138.06 48.9388 138.06C40.5238 138.06 34.4188 143.89 34.4188 152.36ZM41.1288 152.36C41.1288 147.41 44.3188 144.055 48.9388 144.055C53.5588 144.055 56.7488 147.41 56.7488 152.36C56.7488 157.31 53.5588 160.665 48.9388 160.665C44.3188 160.665 41.1288 157.31 41.1288 152.36ZM75.5425 166V125.08H68.8875V166H75.5425ZM101.006 138.83V153.075C101.006 158.245 98.9712 160.72 94.7362 160.72C90.9962 160.72 88.9612 158.63 88.9612 153.46V138.83H82.2512V155.825C82.2512 162.48 85.9362 166.715 92.2062 166.715C95.8362 166.715 99.3562 164.955 101.006 162.37L101.501 166H107.716V138.83H101.006ZM123.887 166V144.44H129.167V138.83H123.887V130.36H117.177V138.83H111.952V144.44H117.177V166H123.887ZM136.693 133.385C138.893 133.385 140.708 131.57 140.708 129.315C140.708 127.06 138.893 125.3 136.693 125.3C134.383 125.3 132.568 127.06 132.568 129.315C132.568 131.57 134.383 133.385 136.693 133.385ZM133.338 166H140.048V138.83H133.338V166ZM145.386 152.36C145.386 160.83 151.491 166.66 159.906 166.66C168.321 166.66 174.426 160.83 174.426 152.36C174.426 143.89 168.321 138.06 159.906 138.06C151.491 138.06 145.386 143.89 145.386 152.36ZM152.096 152.36C152.096 147.41 155.286 144.055 159.906 144.055C164.526 144.055 167.716 147.41 167.716 152.36C167.716 157.31 164.526 160.665 159.906 160.665C155.286 160.665 152.096 157.31 152.096 152.36ZM186.454 166V151.37C186.454 146.97 188.984 144.11 193.109 144.11C196.574 144.11 198.829 146.31 198.829 150.875V166H205.539V149.28C205.539 142.24 202.019 138.005 195.199 138.005C191.514 138.005 188.214 139.6 186.509 142.35L185.959 138.83H179.744V166H186.454Z" fill="#171717"/>
<path d="M7.344 220.252C11.106 220.252 13.986 217.336 13.986 213.556C13.986 209.794 11.088 206.878 7.344 206.878C3.618 206.878 0.72 209.794 0.72 213.556C0.72 217.336 3.6 220.252 7.344 220.252ZM7.344 219.37C4.104 219.37 1.674 216.868 1.674 213.556C1.674 210.262 4.122 207.76 7.344 207.76C10.584 207.76 13.032 210.244 13.032 213.556C13.032 216.868 10.602 219.37 7.344 219.37ZM4.05 213.592C4.05 215.716 5.436 217.192 7.416 217.192C8.964 217.192 10.206 216.274 10.53 214.87H9.45C9.162 215.734 8.442 216.22 7.416 216.22C6.048 216.22 5.112 215.158 5.112 213.574C5.112 212.008 6.084 210.91 7.506 210.91C8.496 210.91 9.162 211.378 9.414 212.278H10.512C10.224 210.856 9.054 209.938 7.488 209.938C5.454 209.938 4.05 211.432 4.05 213.592ZM29.0111 220V218.794H22.5131L25.5191 216.166C28.0931 213.916 28.9391 212.674 28.9391 210.802C28.9391 208.444 27.3191 206.878 24.8891 206.878C22.3511 206.878 20.6411 208.66 20.5691 211.36H21.8651C21.9191 209.362 23.0891 208.066 24.8711 208.066C26.5811 208.066 27.6251 209.128 27.6251 210.874C27.6251 212.404 27.0131 213.304 24.6371 215.374L20.5151 218.974V220H29.0111ZM30.8025 213.556C30.8025 217.57 32.7285 220.234 35.9685 220.234C39.1905 220.234 41.1165 217.57 41.1165 213.556C41.1165 209.56 39.1545 206.86 35.9685 206.86C32.7645 206.86 30.8025 209.56 30.8025 213.556ZM32.0805 213.556C32.0805 210.19 33.5025 208.048 35.9685 208.048C38.4345 208.048 39.8565 210.19 39.8565 213.556C39.8565 216.904 38.4345 219.064 35.9685 219.064C33.5025 219.064 32.0805 216.904 32.0805 213.556ZM51.4056 220V218.794H44.9076L47.9136 216.166C50.4876 213.916 51.3336 212.674 51.3336 210.802C51.3336 208.444 49.7136 206.878 47.2836 206.878C44.7456 206.878 43.0356 208.66 42.9636 211.36H44.2596C44.3136 209.362 45.4836 208.066 47.2656 208.066C48.9756 208.066 50.0196 209.128 50.0196 210.874C50.0196 212.404 49.4076 213.304 47.0316 215.374L42.9096 218.974V220H51.4056ZM61.5482 220V218.794H55.0502L58.0562 216.166C60.6302 213.916 61.4762 212.674 61.4762 210.802C61.4762 208.444 59.8562 206.878 57.4262 206.878C54.8882 206.878 53.1782 208.66 53.1062 211.36H54.4022C54.4562 209.362 55.6262 208.066 57.4082 208.066C59.1182 208.066 60.1622 209.128 60.1622 210.874C60.1622 212.404 59.5502 213.304 57.1742 215.374L53.0522 218.974V220H61.5482ZM70.2038 220V214.06H77.1698V220H78.4478V207.112H77.1698V212.854H70.2038V207.112H68.9078V220H70.2038ZM80.7172 215.644C80.7172 218.29 82.5892 220.216 85.1452 220.216C87.7012 220.216 89.5732 218.29 89.5732 215.644C89.5732 212.98 87.7012 211.054 85.1452 211.054C82.5892 211.054 80.7172 212.98 80.7172 215.644ZM81.9772 215.626C81.9772 213.61 83.2732 212.17 85.1452 212.17C86.9992 212.17 88.3132 213.61 88.3132 215.626C88.3132 217.678 86.9992 219.1 85.1452 219.1C83.2732 219.1 81.9772 217.678 81.9772 215.626ZM92.8017 220V214.6C92.8017 213.268 93.6837 212.188 95.1417 212.188C96.4557 212.188 97.3017 213.052 97.3017 214.528V220H98.5257V214.618C98.5257 213.268 99.3897 212.17 100.848 212.17C102.18 212.17 103.008 213.052 103.008 214.546V220H104.214V214.294C104.214 212.278 102.972 211.054 101.082 211.054C99.6777 211.054 98.6157 211.774 98.2197 212.908C97.8057 211.774 96.7797 211.054 95.4117 211.054C94.1877 211.054 93.2157 211.612 92.7837 212.53L92.6397 211.288H91.5597V220H92.8017ZM110.366 220.216C112.418 220.216 113.768 219.226 114.236 217.39H113.048C112.724 218.542 111.806 219.154 110.384 219.154C108.512 219.154 107.396 217.93 107.306 215.806H114.236V215.194C114.236 212.728 112.634 211.054 110.276 211.054C107.792 211.054 106.1 212.926 106.1 215.644C106.1 218.38 107.81 220.216 110.366 220.216ZM110.276 212.116C111.914 212.116 112.994 213.232 112.994 214.906H107.342C107.558 213.196 108.638 212.116 110.276 212.116ZM117.518 220V206.878H116.276V220H117.518ZM122.661 220.216C124.137 220.216 125.325 219.568 125.865 218.47L126.027 220H127.071V214.366C127.071 212.062 125.595 211.054 123.579 211.054C121.437 211.054 119.997 212.188 119.997 213.952H121.131C121.131 212.782 122.031 212.098 123.543 212.098C124.821 212.098 125.847 212.638 125.847 214.348V214.636L122.967 214.87C120.933 215.032 119.709 216.04 119.709 217.642C119.709 219.172 120.807 220.216 122.661 220.216ZM122.949 219.208C121.761 219.208 120.969 218.668 120.969 217.606C120.969 216.634 121.635 215.914 123.273 215.77L125.847 215.572V216.04C125.847 217.93 124.785 219.208 122.949 219.208ZM130.806 220V215.446C130.806 213.484 131.814 212.188 133.596 212.188C135.036 212.188 135.954 212.908 135.954 214.942V220H137.196V214.672C137.196 212.476 136.206 211.054 133.812 211.054C132.552 211.054 131.4 211.684 130.824 212.8L130.644 211.288H129.564V220H130.806ZM143.091 220.216C144.549 220.216 145.773 219.568 146.385 218.218L146.511 220H147.591V206.878H146.349V212.944C145.737 211.684 144.585 211.054 143.145 211.054C140.553 211.054 139.059 213.034 139.059 215.662C139.059 218.272 140.553 220.216 143.091 220.216ZM143.307 219.082C141.417 219.082 140.319 217.642 140.319 215.626C140.319 213.628 141.417 212.17 143.307 212.17C145.215 212.17 146.331 213.628 146.331 215.626C146.331 217.642 145.215 219.082 143.307 219.082Z" fill="#171717"/>
</svg>
