<svg width="162" height="54" viewBox="0 0 162 54" fill="none" xmlns="http://www.w3.org/2000/svg">
<g clip-path="url(#clip0_811_99)">
<path d="M0.769775 0.591248H35.5639V18.2328H18.1668L0.769775 0.591248ZM0.769775 18.2328H18.1668L35.5639 35.8744H0.769775V18.2328ZM0.769775 35.8744H18.1668V53.516L0.769775 35.8744Z" fill="#E8E8E8"/>
<path d="M55.1958 14.5087H69.2602V19.0408H60.5191V25.3389H69.2602V29.7709H60.5191V37.835H55.1958V14.5087ZM72.1519 21.773H77.1799V25.1387C77.4426 23.9821 77.9798 23.0942 78.7901 22.4727C79.6211 21.8278 80.5436 21.5066 81.5505 21.5066C82.0766 21.5066 82.5152 21.5518 82.8646 21.6398V26.372C82.3631 26.3107 81.8585 26.2776 81.3531 26.2719C79.9729 26.2719 78.9334 26.7264 78.2314 27.6376C77.5317 28.5263 77.1799 29.8589 77.1799 31.637V37.835H72.1543V21.773H72.1519ZM90.8018 38.2684C89.2688 38.2684 87.9316 37.9012 86.7926 37.1683C85.6751 36.4354 84.7868 35.395 84.2296 34.169C83.6382 32.8816 83.3405 31.4247 83.3405 29.804C83.3405 28.2042 83.6494 26.7594 84.2623 25.4721C84.8369 24.2283 85.7491 23.1766 86.8913 22.4397C88.051 21.7068 89.377 21.3395 90.8678 21.3395C91.9846 21.3395 92.9827 21.5849 93.8582 22.0732C94.7338 22.5631 95.3912 23.2298 95.8298 24.0725V21.773H100.824V37.835H95.8298V35.5685C95.3912 36.3684 94.7123 37.023 93.7922 37.5347C92.872 38.0295 91.8437 38.2813 90.8018 38.2684ZM92.248 34.0358C93.4523 34.0358 94.3835 33.6363 95.041 32.8364C95.6985 32.0365 96.0272 31.0252 96.0272 29.804C96.0272 28.6046 95.6985 27.6045 95.041 26.8046C94.3835 26.0048 93.4523 25.6052 92.248 25.6052C91.1074 25.6052 90.1889 25.9935 89.4877 26.7716C88.8087 27.5496 88.4688 28.5594 88.4688 29.804C88.4688 31.0486 88.8087 32.0696 89.4877 32.8695C90.1889 33.6476 91.109 34.0358 92.248 34.0358ZM104.341 21.773H109.369V24.1056C109.721 23.2823 110.289 22.6156 111.077 22.1063C111.889 21.597 112.83 21.3395 113.903 21.3395C116.401 21.3395 118.056 22.3275 118.865 24.3058C119.311 23.409 120.008 22.6673 120.87 22.1733C121.792 21.6107 122.851 21.3226 123.926 21.3395C127.673 21.3395 129.545 23.5156 129.545 27.8709V37.835H124.485V28.8039C124.485 27.7167 124.287 26.9168 123.893 26.4051C123.499 25.895 122.907 25.6383 122.118 25.6383C121.264 25.6383 120.607 25.9386 120.147 26.5383C119.687 27.1162 119.457 28.1259 119.457 29.5707V37.835H114.396V28.7708C114.396 27.6828 114.199 26.8934 113.805 26.4051C113.434 25.895 112.852 25.6383 112.065 25.6383C111.188 25.6383 110.519 25.9386 110.059 26.5383C109.599 27.1162 109.369 28.1259 109.369 29.5707V37.835H104.342V21.773H104.341ZM148.433 28.971C148.433 29.6587 148.389 30.4037 148.3 31.2035H136.603C136.648 32.248 136.997 33.0462 137.655 33.6032C138.312 34.1577 139.201 34.4361 140.316 34.4361C141.872 34.4361 142.858 33.9575 143.274 33.0026H148.203C147.961 34.5806 147.107 35.8567 145.639 36.8349C144.194 37.7898 142.419 38.2684 140.316 38.2684C137.6 38.2684 135.464 37.5234 133.908 36.0351C132.375 34.5459 131.608 32.4699 131.608 29.804C131.608 28.071 131.958 26.5714 132.659 25.305C133.336 24.0402 134.381 23.0168 135.649 22.3727C136.943 21.685 138.443 21.3395 140.154 21.3395C141.774 21.3395 143.208 21.6616 144.457 22.3065C145.727 22.9514 146.703 23.8505 147.381 25.0055C148.083 26.1622 148.433 27.4834 148.433 28.971ZM143.469 28.038C143.447 26.9717 143.152 26.1597 142.581 25.6052C142.013 25.0507 141.19 24.7723 140.117 24.7723C139.044 24.7723 138.19 25.0717 137.554 25.6722C136.941 26.2501 136.624 27.0379 136.601 28.038H143.469ZM150.65 21.773H155.678V25.1387C155.941 23.9821 156.478 23.0942 157.288 22.4727C158.075 21.8448 159.047 21.5042 160.049 21.5066C160.574 21.5066 161.013 21.5518 161.363 21.6398V26.372C160.861 26.3107 160.357 26.2776 159.851 26.2719C158.471 26.2719 157.431 26.7264 156.729 27.6376C156.027 28.5263 155.678 29.8589 155.678 31.637V37.835H150.65V21.773Z" fill="#E8E8E8"/>
</g>
<defs>
<clipPath id="clip0_811_99">
<rect width="160.782" height="53.271" fill="white" transform="translate(0.769775 0.591248)"/>
</clipPath>
</defs>
</svg>
