<svg width="187" height="79" viewBox="0 0 187 79" fill="none" xmlns="http://www.w3.org/2000/svg">
<path d="M118.089 19.3069H111.849V54.2287C117.52 54.4239 123.168 54.7105 128.792 55.0856V48.9328C125.234 48.6954 121.667 48.4944 118.089 48.3276V19.3069ZM167.683 19.3105H160.828L156.31 29.7902L152.25 19.3105H145.498L152.754 38.0362L144.833 56.4068C147.024 56.6207 149.209 56.8488 151.392 57.0899L155.999 46.4085L160.562 58.183C162.938 58.4887 165.307 58.8077 167.673 59.1458L167.683 59.1418L159.554 38.1629L167.683 19.3105ZM90.4268 53.9234L96.6676 53.9222V39.7171H105.127V33.5644H96.6676V25.5189H107.848V19.3109H90.4268V53.9234ZM67.1227 25.5185H73.6544V54.2892C75.731 54.2108 77.8117 54.1463 79.8948 54.0919V25.5185H86.4261V19.3105H67.1227V25.5185ZM45.7872 56.0776C51.5392 55.5548 57.3176 55.1237 63.1219 54.7892V48.6357C59.4133 48.8504 55.7152 49.1041 52.0281 49.3943V40.0796C54.4475 40.0556 57.6332 39.9818 60.4555 40.0167V33.8635C58.2007 33.8582 54.5769 33.8952 52.0281 33.9277V25.5189H63.1219V19.3109H45.7872V56.0776ZM33.5457 41.8538L25.4177 19.3105H19.4868V59.1467C21.563 58.8507 23.6433 58.5678 25.7276 58.2959V36.6334L32.9547 57.4065C35.2276 57.1427 37.5047 56.8931 39.7866 56.658V19.3105H33.5457V41.8538ZM133.937 55.4561C136.02 55.6157 138.1 55.7866 140.178 55.9716V19.3105H133.937V55.4561Z" fill="#E8E8E8"/>
</svg>
