<svg width="272" height="40" viewBox="0 0 272 40" fill="none" xmlns="http://www.w3.org/2000/svg">
<g clip-path="url(#clip0_811_91)">
<path d="M10.9727 21.3837L26.2029 6.23639C27.2318 5.21743 28.624 4.64544 30.0753 4.64544C31.5265 4.64544 32.9187 5.21743 33.9476 6.23639L35.1313 7.41481L37.5039 5.05259L36.3203 3.86879C34.6606 2.21993 32.4118 1.29391 30.0672 1.29391C27.7226 1.29391 25.4737 2.21993 23.814 3.86879L8.59473 19.0214L10.9727 21.3837Z" fill="#E8E8E8"/>
<path d="M31.3046 11.2245L28.932 8.86227L13.6965 24.0311C12.6673 25.055 11.2717 25.63 9.81678 25.6295C8.36181 25.629 6.96665 25.053 5.93819 24.0284C4.90974 23.0037 4.33224 21.6142 4.33275 20.1657C4.33326 18.7171 4.91172 17.328 5.94089 16.3041L19.0849 3.21769L16.7122 0.855469L3.56828 13.9418C2.73153 14.7556 2.06528 15.7266 1.6081 16.7985C1.15093 17.8705 0.911929 19.0221 0.904943 20.1866C0.897957 21.3512 1.12312 22.5056 1.5674 23.5829C2.01168 24.6602 2.66624 25.639 3.49317 26.4626C4.32009 27.2863 5.30295 27.9384 6.3848 28.3812C7.46665 28.824 8.62599 29.0487 9.79568 29.0422C10.9654 29.0358 12.1221 28.7983 13.199 28.3436C14.2758 27.8889 15.2514 27.226 16.0691 26.3933L31.3046 11.2245ZM46.4699 13.9418C44.8095 12.2943 42.561 11.3692 40.2168 11.3692C37.8726 11.3692 35.624 12.2943 33.9637 13.9418L18.7281 29.1106L21.1008 31.4729L36.3363 16.3041C37.1038 15.5415 38.081 15.0224 39.1446 14.8125C40.2082 14.6026 41.3105 14.7112 42.3121 15.1246C43.3138 15.538 44.1699 16.2377 44.7723 17.1352C45.3748 18.0328 45.6966 19.088 45.697 20.1676C45.6998 20.8867 45.5578 21.5992 45.2793 22.2628C45.0008 22.9264 44.5915 23.5276 44.0757 24.0311L30.9479 37.1174L33.3259 39.4797L46.4699 26.3933C48.126 24.7409 49.0561 22.5019 49.0561 20.1676C49.0561 17.8332 48.126 15.5942 46.4699 13.9418Z" fill="#E8E8E8"/>
<path d="M39.0657 18.9515L23.8301 34.1149C22.7999 35.1374 21.4044 35.7117 19.9497 35.7117C18.4949 35.7117 17.0994 35.1374 16.0692 34.1149L14.8856 32.9311L12.5129 35.2933L13.6965 36.4771C15.3569 38.1246 17.6055 39.0498 19.9497 39.0498C22.2938 39.0498 24.5424 38.1246 26.2028 36.4771L41.4383 21.3029L39.0657 18.9515Z" fill="#E8E8E8"/>
<path d="M62.9702 24.2463C63.1261 25.146 63.6186 25.9535 64.3484 26.5063C65.1857 27.0829 66.1906 27.3685 67.2074 27.3188C68.1753 27.3802 69.1335 27.0959 69.9097 26.517C70.2191 26.2608 70.4657 25.9375 70.6305 25.572C70.7954 25.2064 70.8742 24.8082 70.8609 24.4077C70.8718 24.0331 70.7843 23.6621 70.6069 23.3315C70.4293 23.0315 70.1853 22.7757 69.8935 22.5836C69.5455 22.3535 69.1672 22.1725 68.7694 22.0455L67.2669 21.5935L65.8347 21.2061C65.0407 20.9966 64.2681 20.7138 63.5269 20.3613C62.8906 20.0617 62.3024 19.67 61.7812 19.199C61.3165 18.7693 60.9481 18.2467 60.7003 17.6654C60.436 17.0259 60.3072 16.339 60.322 15.6476C60.3143 14.8816 60.4806 14.1237 60.8084 13.4307C61.1244 12.7562 61.5923 12.1633 62.1758 11.698C62.8176 11.1866 63.5512 10.8013 64.3376 10.5626C65.2566 10.2727 66.2166 10.1328 67.1804 10.1483C69.1657 10.1483 70.7384 10.6147 71.8986 11.5473C72.4736 12.0084 72.9505 12.5789 73.3013 13.2257C73.6521 13.8725 73.8698 14.5824 73.9416 15.314L70.6988 15.5776C70.5383 14.8369 70.1213 14.1759 69.5206 13.7105C68.7924 13.2258 67.9251 12.9915 67.0507 13.0432C66.2257 12.9949 65.4095 13.2347 64.743 13.7212C64.4767 13.9278 64.2628 14.1936 64.1183 14.4972C63.9737 14.8009 63.9026 15.1341 63.9106 15.47C63.8973 15.8282 63.9814 16.1832 64.1539 16.4978C64.3277 16.7881 64.5662 17.0348 64.851 17.2188C65.1982 17.4436 65.5722 17.6244 65.9644 17.7569C66.4022 17.9183 66.8994 18.0905 67.4507 18.2681L68.8234 18.6932C69.6773 18.9622 70.4502 19.242 71.142 19.5326C71.7782 19.802 72.3702 20.1648 72.8985 20.6088C73.3746 21.0101 73.7549 21.5119 74.0118 22.0778C74.2899 22.7456 74.4225 23.4645 74.401 24.1871C74.41 25.0318 74.2251 25.8673 73.8605 26.63C73.5088 27.3626 72.9952 28.0065 72.358 28.5134C71.6733 29.0524 70.8947 29.461 70.0611 29.7187C69.1113 30.0128 68.1209 30.1562 67.1264 30.1438C65.3674 30.209 63.6322 29.7235 62.165 28.7555C61.48 28.262 60.9064 27.6312 60.481 26.9037C60.0557 26.1762 59.7879 25.3682 59.6951 24.5315L62.9702 24.2463ZM88.0746 10.2021C89.434 10.1846 90.7837 10.4332 92.0469 10.9339C93.2006 11.394 94.2419 12.0949 95.1005 12.9894C95.9621 13.9015 96.6295 14.9778 97.0624 16.1534C97.5377 17.4457 97.7739 18.813 97.7596 20.1891C97.779 21.5905 97.5276 22.9825 97.0191 24.2893C96.5452 25.4771 95.8294 26.5544 94.9168 27.4533L97.4894 30.4505V31.3814H94.2466L92.4469 29.1914C91.7949 29.5019 91.112 29.7436 90.4093 29.9124C89.6509 30.0738 88.8772 30.1532 88.1016 30.1492C86.7265 30.1574 85.3635 29.894 84.0914 29.3743C82.9442 28.9113 81.9103 28.2085 81.0594 27.3134C80.2083 26.4054 79.5518 25.3344 79.13 24.1656C78.6639 22.8861 78.4314 21.5339 78.4436 20.1729C78.4301 18.8031 78.6625 17.4418 79.13 16.1534C79.5544 14.9806 80.2167 13.9073 81.0756 13.0002C81.9321 12.1054 82.9691 11.4012 84.1184 10.9339C85.3742 10.4273 86.7198 10.1784 88.0746 10.2021ZM88.0475 13.0863C87.1552 13.0726 86.271 13.2564 85.4587 13.6244C84.7124 13.9676 84.0531 14.4733 83.5293 15.1041C82.9846 15.7656 82.5735 16.5257 82.3187 17.3426C82.0367 18.2521 81.8982 19.1996 81.9079 20.1514C81.8985 21.1115 82.0426 22.0669 82.3349 22.9818C82.5967 23.8061 83.0109 24.5744 83.5563 25.2471C84.0792 25.8856 84.7383 26.4003 85.4858 26.7538C86.2972 27.1244 87.182 27.3083 88.0746 27.2919C88.9664 27.3005 89.8495 27.117 90.6634 26.7538C91.4082 26.4179 92.0676 25.9195 92.5928 25.2956C93.1445 24.6331 93.5596 23.8688 93.8142 23.0464C94.1099 22.1099 94.2558 21.133 94.2466 20.1514C94.2549 19.184 94.1089 18.2214 93.8142 17.2995C93.5559 16.4819 93.1411 15.7218 92.5928 15.0611C92.062 14.4371 91.3996 13.9373 90.6525 13.5975C89.8321 13.2398 88.9429 13.0653 88.0475 13.0863ZM110.498 27.4264C111.099 27.4632 111.701 27.3686 112.261 27.1492C112.821 26.9299 113.326 26.591 113.741 26.1565C114.508 25.3135 114.892 24.0185 114.892 22.2715V10.5734H118.259V22.3791C118.286 23.5886 118.103 24.7936 117.719 25.9413C117.408 26.8606 116.884 27.6939 116.189 28.3735C115.5 29.0234 114.664 29.4994 113.752 29.7617C111.63 30.346 109.388 30.346 107.266 29.7617C106.357 29.4992 105.525 29.0231 104.84 28.3735C104.146 27.6925 103.623 26.8596 103.31 25.9413C102.926 24.7935 102.743 23.5886 102.77 22.3791V10.5734H106.147V22.2715C106.147 24.0149 106.533 25.3099 107.304 26.1565C107.713 26.5852 108.21 26.9206 108.761 27.1398C109.313 27.359 109.905 27.4568 110.498 27.4264ZM121.632 28.8362L128.468 10.5949H133.538L140.299 28.8362V29.751H136.975L135.04 24.2732H126.701L124.745 29.751H121.61L121.632 28.8362ZM127.717 21.4106H134.078L133.03 18.365C132.619 17.1758 132.289 16.2126 132.035 15.4539C131.781 14.6952 131.565 14.0495 131.365 13.4791H130.538L130.214 14.3885C130.106 14.6898 129.987 15.0288 129.852 15.4001C129.717 15.7714 129.571 16.2018 129.409 16.6861C129.247 17.1704 129.052 17.7246 128.82 18.365L127.717 21.4106ZM159.183 29.751H155.94L150.065 22.2177H147.903V29.751H144.574V10.5734H150.827C151.764 10.5718 152.7 10.6383 153.627 10.7725C154.488 10.8969 155.31 11.2132 156.032 11.698C157.552 12.6953 158.313 14.1983 158.313 16.2072C158.328 16.9858 158.194 17.76 157.918 18.4887C157.684 19.1022 157.334 19.665 156.886 20.146C156.458 20.5981 155.955 20.9732 155.4 21.2545C154.842 21.5382 154.252 21.7532 153.643 21.8948L159.183 28.8362V29.751ZM147.893 19.3335H150.816C151.877 19.3897 152.931 19.1473 153.859 18.634C154.233 18.3853 154.533 18.0417 154.729 17.6387C154.925 17.2357 155.009 16.7879 154.973 16.3417C155.017 15.8989 154.934 15.4526 154.734 15.0546C154.534 14.6566 154.225 14.323 153.843 14.0925C152.905 13.6281 151.863 13.4095 150.816 13.4576H147.893V19.3335ZM163.474 10.5734H175.948V13.5114H166.76V18.5318H175.288V21.4159H166.776V26.7968H176.137V29.751H163.474V10.5734ZM183.595 24.2463C183.751 25.146 184.244 25.9535 184.973 26.5063C185.811 27.0822 186.816 27.3677 187.832 27.3188C188.8 27.3802 189.759 27.0959 190.535 26.517C190.844 26.2608 191.091 25.9375 191.256 25.572C191.42 25.2064 191.499 24.8082 191.486 24.4077C191.497 24.0331 191.409 23.6621 191.232 23.3315C191.054 23.0315 190.81 22.7757 190.519 22.5836C190.171 22.3535 189.792 22.1725 189.394 22.0455L187.892 21.5935L186.443 21.1953C185.649 20.9859 184.877 20.703 184.136 20.3505C183.499 20.0509 182.911 19.6593 182.39 19.1882C181.925 18.7586 181.557 18.236 181.309 17.6547C181.042 16.9774 180.914 16.2537 180.933 15.5264C180.951 14.799 181.116 14.0828 181.417 13.4199C181.735 12.7465 182.203 12.154 182.785 11.6872C183.426 11.1758 184.16 10.7905 184.946 10.5519C185.865 10.262 186.825 10.122 187.789 10.1375C189.774 10.1375 191.349 10.6039 192.513 11.5366C193.087 11.9979 193.563 12.5686 193.913 13.2154C194.263 13.8622 194.48 14.572 194.55 15.3032L191.308 15.5669C191.15 14.8276 190.737 14.1669 190.14 13.6997C189.412 13.2143 188.545 12.9799 187.67 13.0325C186.845 12.9842 186.029 13.224 185.363 13.7105C185.097 13.9176 184.884 14.1836 184.741 14.4873C184.597 14.7909 184.527 15.1238 184.536 15.4593C184.521 15.8169 184.603 16.1719 184.773 16.487C184.947 16.7774 185.186 17.0241 185.471 17.2081C185.818 17.4329 186.192 17.6137 186.584 17.7462C187.022 17.9076 187.519 18.0798 188.076 18.2573L189.443 18.6824C190.301 18.9515 191.073 19.2313 191.762 19.5219C192.398 19.7913 192.99 20.154 193.518 20.598C193.994 20.9993 194.374 21.5011 194.631 22.067C194.909 22.7348 195.042 23.4538 195.021 24.1763C195.03 25.021 194.845 25.8565 194.48 26.6193C194.13 27.353 193.616 27.9972 192.978 28.5026C192.292 29.0373 191.513 29.4421 190.681 29.6972C189.729 29.9912 188.737 30.1347 187.741 30.1222C185.982 30.1868 184.247 29.7013 182.779 28.734C182.099 28.2418 181.529 27.614 181.105 26.8904C180.682 26.1669 180.415 25.3635 180.32 24.5315L183.595 24.2463ZM199.82 10.5734H206.846C207.959 10.5448 209.069 10.6993 210.132 11.0308C210.939 11.2786 211.679 11.7075 212.294 12.2845C212.834 12.8079 213.238 13.4542 213.472 14.1678C213.72 14.9214 213.842 15.7103 213.834 16.5032C213.856 17.3966 213.687 18.2845 213.337 19.1075C213.021 19.8272 212.528 20.4563 211.904 20.937C211.222 21.4402 210.447 21.8057 209.624 22.0132C208.633 22.2661 207.614 22.3874 206.592 22.3737H203.187V29.751H199.831L199.82 10.5734ZM203.176 19.4949H206.392C206.936 19.499 207.479 19.4503 208.013 19.3497C208.468 19.2649 208.904 19.099 209.299 18.86C209.664 18.6332 209.96 18.3137 210.159 17.9345C210.376 17.4893 210.482 16.9981 210.467 16.5032C210.483 15.9961 210.377 15.4925 210.159 15.0342C209.966 14.6501 209.673 14.3248 209.31 14.0925C208.921 13.8518 208.491 13.6857 208.04 13.6028C207.506 13.5014 206.963 13.4527 206.419 13.4576H203.149L203.176 19.4949ZM214.764 28.8362L221.606 10.5949H226.675L233.431 28.8362V29.751H230.134L228.205 24.2732H219.833L217.904 29.751H214.764V28.8362ZM220.854 21.4106H227.21L226.162 18.365C225.751 17.1758 225.421 16.2126 225.173 15.4539L224.503 13.4791H223.649L223.324 14.3885C223.216 14.6898 223.097 15.0288 222.962 15.4001C222.827 15.7714 222.681 16.2018 222.519 16.6861C222.357 17.1704 222.162 17.7246 221.93 18.365L220.854 21.4106ZM253.871 24.6768C253.566 25.427 253.166 26.1358 252.682 26.7861C252.18 27.4527 251.576 28.0373 250.893 28.5187C250.153 29.0366 249.333 29.4327 248.467 29.6918C247.471 29.9886 246.436 30.1338 245.397 30.1222C244.055 30.1425 242.723 29.8879 241.484 29.3743C240.349 28.903 239.327 28.1989 238.484 27.308C237.637 26.3968 236.985 25.3241 236.566 24.1548C236.107 22.883 235.878 21.5403 235.89 20.1891C235.878 18.8378 236.107 17.4951 236.566 16.2234C236.985 15.0488 237.642 13.9721 238.495 13.0594C239.343 12.159 240.37 11.4443 241.511 10.9608C242.754 10.4404 244.092 10.1821 245.44 10.2021C247.315 10.1357 249.166 10.6489 250.736 11.6711C252.133 12.6181 253.191 13.9824 253.758 15.5669L250.347 16.2341C249.923 15.3021 249.25 14.5038 248.402 13.9257C247.505 13.3478 246.453 13.055 245.386 13.0863C244.51 13.0672 243.643 13.2514 242.851 13.6244C242.122 13.9804 241.482 14.4932 240.976 15.1256C240.445 15.7994 240.048 16.5684 239.808 17.391C239.532 18.2962 239.396 19.2378 239.403 20.1837C239.395 21.1358 239.535 22.0833 239.819 22.9925C240.073 23.8069 240.483 24.5651 241.024 25.2256C241.553 25.8459 242.212 26.3436 242.954 26.6838C243.762 27.0529 244.643 27.2367 245.532 27.2219C246.636 27.2661 247.725 26.9465 248.629 26.3126C249.425 25.7316 250.073 24.9722 250.52 24.0956L253.871 24.6768ZM258.406 10.5734H270.879V13.5114H261.692V18.5318H270.236V21.4159H261.708V26.7968H271.068V29.751H258.406V10.5734Z" fill="#E8E8E8"/>
</g>
<defs>
<clipPath id="clip0_811_91">
<rect width="270.229" height="38.7426" fill="white" transform="translate(0.979492 0.855469)"/>
</clipPath>
</defs>
</svg>
