<svg width="155" height="40" viewBox="0 0 155 40" fill="none" xmlns="http://www.w3.org/2000/svg">
<g clip-path="url(#clip0_811_77)">
<path d="M50.3643 16.0057C50.3643 13.2424 47.6779 10.3077 43.0291 10.3077C37.8087 10.3077 32.0739 14.1381 31.1975 21.7799C30.302 29.4979 35.1033 32.9281 39.9426 32.9281C44.7819 32.9281 47.3159 31.0415 49.9071 28.526C47.6779 25.7247 44.801 27.0205 44.2485 27.3064C43.6388 27.6113 42.8576 28.0305 41.2572 28.0305C39.3901 28.0305 37.4848 27.192 37.4848 23.7046C49.4498 22.5231 50.3643 18.7689 50.3643 16.0057ZM44.439 16.463C44.3628 17.3206 44.0198 18.788 37.9611 19.6074C39.2377 15.0719 41.6764 14.7289 42.8005 14.7289C43.8484 14.7289 44.5152 15.5483 44.439 16.463ZM24.1671 17.2062C24.1671 17.2062 21.595 25.2863 21.3854 25.9533C21.3092 25.2673 19.423 10.765 19.423 10.765C15.0409 10.765 12.6975 13.8904 11.4591 17.1872C11.4591 17.1872 8.33443 25.2863 8.0677 25.9724C8.04865 25.3435 7.59138 17.2825 7.59138 17.2825C7.32465 13.2424 3.62846 10.7841 0.637207 10.7841L4.25719 32.7566C8.84885 32.7376 11.3257 29.6313 12.6213 26.3345C12.6213 26.3345 15.3839 19.1882 15.4982 18.8642C15.5172 19.1691 17.4797 32.7566 17.4797 32.7566C22.0904 32.7566 24.5672 29.8409 25.9009 26.6584L32.3597 10.7841C27.8061 10.7841 25.4055 13.8904 24.1671 17.2062ZM67.283 10.2696C64.4442 10.2696 62.2722 11.8132 60.4431 14.0809V14.0619L62.0817 0.855469C58.3092 0.855469 55.2418 4.13325 54.6512 9.0118L51.7933 32.5851C53.9653 32.5851 56.2706 31.9562 57.509 30.3555C58.6141 31.7847 60.2717 32.9281 62.7294 32.9281C69.093 32.9281 73.456 25.5341 73.456 18.5974C73.4179 12.2705 70.3505 10.2696 67.283 10.2696ZM66.6924 21.6084C66.0255 25.4769 63.8726 28.1068 61.7959 28.1068C59.7001 28.1068 58.8046 27.173 58.8046 27.173C59.2047 23.7809 59.4524 21.7037 60.2145 19.9123C60.9766 18.121 62.7866 15.2624 64.6728 15.2624C66.5209 15.2624 67.3592 17.7208 66.6924 21.6084ZM89.3458 10.7841H84.9066L84.9257 10.5554C85.2305 7.65876 85.9164 6.13421 88.1836 5.88648C89.7269 5.73402 90.4128 4.93363 90.5843 4.05702C90.7176 3.37097 91.1368 0.988867 91.1368 0.988867C82.2202 0.931696 79.4195 4.78118 78.6955 10.6507L78.6764 10.7841H78.5812C77.1332 10.7841 75.5327 12.423 75.266 14.5002L75.1708 15.2624H78.1429L75.6471 35.882L74.885 39.579C74.9802 39.579 75.0945 39.598 75.1898 39.598C79.3623 39.4456 82.0297 36.1487 82.6203 31.3655L84.5637 15.2624H85.9545C87.3263 15.2624 88.9267 13.8904 89.2125 11.6035L89.3458 10.7841ZM112.438 10.4029C107.312 10.4029 102.473 14.1762 100.987 20.1029C99.5008 26.0296 101.749 33.0425 109.294 33.0425C116.82 33.0425 121.164 25.7437 121.164 19.6646C121.164 13.6236 117.067 10.4029 112.438 10.4029ZM114.514 21.4178C114.248 24.1048 113.066 28.183 109.827 28.183C106.569 28.183 107.027 23.4188 107.35 21.151C107.693 18.7308 109.046 15.2815 111.961 15.2815C114.571 15.2815 114.819 18.3878 114.514 21.4178ZM146.484 17.2062C146.484 17.2062 143.912 25.2863 143.703 25.9533C143.627 25.2673 141.74 10.765 141.74 10.765C137.358 10.765 135.015 13.8904 133.776 17.1872C133.776 17.1872 130.652 25.2863 130.385 25.9724C130.366 25.3435 129.909 17.2825 129.909 17.2825C129.642 13.2424 125.946 10.7841 122.955 10.7841L126.555 32.7566C131.147 32.7376 133.624 29.6313 134.92 26.3345C134.92 26.3345 137.682 19.1882 137.777 18.8642C137.816 19.1691 139.759 32.7566 139.759 32.7566C144.37 32.7566 146.846 29.8409 148.18 26.6584L154.639 10.7841C150.104 10.7841 147.704 13.8904 146.484 17.2062ZM93.5374 0.988867L89.8031 31.1177L89.041 34.8338C89.1363 34.8338 89.2506 34.8529 89.3458 34.8529C93.3659 34.7957 96.2238 31.2702 96.7573 26.8299L98.9102 9.54539C99.558 4.26664 96.4143 0.988867 93.5374 0.988867Z" fill="#E8E8E8"/>
</g>
<defs>
<clipPath id="clip0_811_77">
<rect width="154.002" height="38.7426" fill="white" transform="translate(0.637207 0.855469)"/>
</clipPath>
</defs>
</svg>
